<svg width="336" height="344" viewBox="0 0 336 344" fill="none" xmlns="http://www.w3.org/2000/svg">
<ellipse cx="83" cy="323" rx="83" ry="21" fill="#D9D9D9"/>
<path d="M83 322.994L197.5 77C226 12 301 9.99998 335.5 20.9999C309.9 26.4867 244.333 159.307 221.432 221.111C206.547 227.452 175.468 234.026 161.789 236.52C180.627 236.946 204.296 234.084 213.776 232.599C215.388 235.864 211.839 245.619 184.749 258.515C143.16 261.651 113.159 289.745 103.5 302.866C103.5 302.866 112.5 303 118 304C123.5 305 97.0341 316.047 97.0341 316.047L165.5 322.994L83 322.994Z" fill="#a1a1aa"/>
</svg>
