<?xml version="1.0" encoding="UTF-8"?>
<svg id="icons" xmlns="http://www.w3.org/2000/svg" viewBox="0 0 150 150">
  <defs>
    <style>
      .cls-1 {
        fill: #fff;
      }
    </style>
  </defs>
  <path id="message" class="cls-1" d="M75,27c-31.48,0-57,17.78-57,39.72,0,13.19,9.27,24.85,23.47,32.07v24.2l29.02-16.71c1.49.08,2.99.16,4.51.16,31.48,0,57-17.79,57-39.72s-25.52-39.72-57-39.72ZM54,73c-3.87,0-7-3.13-7-7s3.13-7,7-7,7,3.13,7,7-3.13,7-7,7ZM76.5,73c-3.87,0-7-3.13-7-7s3.13-7,7-7,7,3.13,7,7-3.13,7-7,7ZM99,73c-3.87,0-7-3.13-7-7s3.13-7,7-7,7,3.13,7,7-3.13,7-7,7Z"/>
</svg>