<?xml version="1.0" encoding="UTF-8"?>
<svg id="icons" xmlns="http://www.w3.org/2000/svg" viewBox="0 0 150 150">
  <defs>
    <style>
      .cls-1 {
        fill: #fff;
      }
    </style>
  </defs>
  <path id="message_fill" class="cls-1" d="M117,30H33c-4.97,0-9,4.03-9,9v57c0,4.97,4.03,9,9,9h21v15l18-15h45c4.97,0,9-4.03,9-9v-57c0-4.97-4.03-9-9-9ZM99,82.5h-48c-2.49,0-4.5-2.01-4.5-4.5s2.01-4.5,4.5-4.5h48c2.49,0,4.5,2.01,4.5,4.5s-2.01,4.5-4.5,4.5ZM99,61.5h-48c-2.49,0-4.5-2.01-4.5-4.5s2.01-4.5,4.5-4.5h48c2.49,0,4.5,2.01,4.5,4.5s-2.01,4.5-4.5,4.5Z"/>
</svg>